<?xml version="1.0" encoding="iso-8859-1"?>
<!-- Generator: Adobe Illustrator 29.8.3, SVG Export Plug-In . SVG Version: 9.03 Build 0)  -->
<svg version="1.1" id="Calque_1" xmlns="http://www.w3.org/2000/svg" xmlns:xlink="http://www.w3.org/1999/xlink" x="0px" y="0px"
	 viewBox="0 0 833.5 166.6" enable-background="new 0 0 833.5 166.6" xml:space="preserve">
<g id="xEsJfO">
	<g>
		<path fill="#185A32" d="M70,8.4c4.7-0.4,9.5,2.1,14.2,2.8c7.2,1,10.6-0.8,17.2-2.3c11.4-2.6,13.3,5.5,20.8,11
			c4.7,3.5,8.6,3.8,13.8,5.4c10.7,3.3,8.6,13,13.1,21.1c2.5,4.5,5.7,6.6,9.1,10.1c7.6,8,1.6,15.1,1.1,24c-0.1,1.2-0.1,2.8,0,4
			c0.6,9.8,6.9,15.5-1.3,24.6c-3.7,4.1-7,6.4-9.4,11.8c-3.6,8-2,16.8-12.1,20.2c-4.6,1.6-8.4,1.9-12.7,4.7
			c-8.9,5.8-10.1,15.2-23.2,11.9c-4.8-1.2-8.4-2.6-13.6-2.4c-9.3,0.5-16.1,7.1-24.5-0.6c-3.6-3.3-5.7-6.6-10.2-9.3
			c-8.5-5.2-17.4-2.3-21-14.1c-1.4-4.6-1.9-8.5-4.4-12.8c-2.4-4.1-5.5-6.3-8.5-9.7c-7.7-8.6-1.5-15-1-24.3c0.3-6-1.3-9.5-2.3-15
			c-2.3-12.1,7.1-13.9,12.2-22.4c2.5-4.1,2.9-7.9,4.3-12.3c3.6-11,12.4-8.5,20.6-13.2C58.5,17.7,62.9,9,70,8.4L70,8.4z M86.8,17.1
			C28.5,18.9,2.2,92.1,43.9,132.3c37.7,36.3,97.9,15,108-35.1C160.1,56.6,129.1,15.8,86.8,17.1L86.8,17.1z"/>
		<path fill="#185A32" d="M86.2,20.4c42.7-1.8,72.8,40.9,61.4,81.2c-13.3,46.9-72.1,62-104.9,24.9C7.8,87,33.1,22.6,86.2,20.4z
			 M85.8,21.8c-51.3,2.4-76,64.6-42.8,103.1c32.4,37.5,91.1,22.3,103.6-24.8C157.3,60.6,127.5,19.8,85.8,21.8L85.8,21.8z"/>
		<path fill="#194483" d="M70,76.3c-0.2,0.2-0.4,0.3-0.6,0.3c-2.3,0.1-4.9,0.9-7.2,1s-1.6-1.6-2.1-3.2c-1.7-5.6-9.7-5.1-10.9,0.3
			c-0.5,2.2,0.2,6,0.5,8.4c0.8,6.9,1.6,14.8,2.8,21.6c0.5,2.7,1.9,4.9,4.8,5.2c4,0.3,6.5-2.4,6.4-6.3c0-1.4-1-3.2,0.8-3.8
			c2.1-0.7,5-0.4,7.2-1c2-0.3,2,2.3,2.1,3.7c0.7,12.4-10.2,18.6-21.5,15.5c-7.7-2.1-9.4-8.1-10.4-15.1c-1.2-8.2-2-16.4-3.1-24.6
			c-0.4-8.5,3.8-14.2,12.1-16.2s16.5,0.5,18.9,9.4C70,72.6,70.8,75.6,70,76.3L70,76.3z"/>
		<path fill="#194483" d="M98.5,56c1-0.1,2-0.2,2.4,0.9c0.3,0.9,0.7,4.3,0.7,5.4c0.1,1.3,0.1,2.1-1.4,2.4c-4.3,1-9.5,0.9-13.8,1.9
			c-1.8,0.4-1.2,1.8-1.1,3.3c0.3,2.7,0.7,5.8,1.1,8.5c0.2,1.2,0.1,2.3,1.7,2.2c3.6-0.2,7.7-1.4,11.3-1.6c1.1-0.1,1.7,0,2,1.1
			s0.7,4.1,0.7,5.3c0.1,1,0.1,1.9-1,2.3l-12.1,1.6c-1.2,0.2-1.1,1-1.1,2c0.2,3.4,0.9,8.5,1.6,11.8c0.2,1.2,0.4,1.4,1.7,1.4
			c3.9-0.1,8.4-1.3,12.3-1.7c1.7-0.2,3.1-0.7,3.6,1.4c0.2,0.9,0.8,5.3,0.7,6s-0.7,1.1-1.3,1.2l-23.6,3.3c-2.1,0.2-2.1-1.4-2.3-2.9
			c-1.1-7.1-1.8-14.3-2.7-21.4c-1.2-8.9-2.7-17.9-3.6-26.9c-0.2-1.8-0.9-4.1,1.6-4.4C83.6,58.4,91.2,56.5,98.5,56L98.5,56z"/>
		<path fill="#194483" d="M117.5,62.5c-0.4,0.4-0.3,1.1-0.3,1.6c0.1,2.9,0.8,7.1,1.3,10c0.2,1,0.2,2.1,1.4,2.1l11.9-1.7
			c0.9,0,1.5,0.2,1.8,1.1c0.3,1.1,0.8,4.8,0.9,5.9c0,0.8-0.3,1.3-1,1.7c-3.8,0.8-8.1,0.8-11.9,1.7c-0.7,0.2-1.1,0.2-1.3,1.1
			c0.4,4.6,1.1,9.2,1.8,13.7c0.3,0.7,1,0.6,1.7,0.6c4.3-0.2,9-1.6,13.3-1.8c1-0.1,1.9,0,2.2,1.1s0.7,4.5,0.7,5.6
			c0,0.9-0.2,1.6-1,1.9l-23.9,3.4c-0.6,0-1.2-0.2-1.5-0.8c-2.5-17.7-4.8-35.5-7.1-53.2c0.1-1,0.5-1.4,1.4-1.6c7-0.8,14-2.1,21-3
			c1.5-0.2,3.7-0.9,4.2,1c0.3,1,0.7,5.2,0.6,6.2c-0.1,0.8-0.4,1.1-1.1,1.3c-4.1,0.7-8.4,1.1-12.5,1.8
			C119.4,62,117.9,62.1,117.5,62.5z"/>
	</g>
</g>
<g>
	<path fill="#B33930" d="M286.2,12.6H582c11.6,0,21,9.4,21,21V133c0,11.6-9.4,21-21,21H286.2c-11.6,0-21-9.4-21-21V33.6
		C265.2,22,274.6,12.6,286.2,12.6z"/>
	<g id="aIuODB">
		<path fill="#FEFEFE" d="M370.2,81.8v36.6c0,1.3-1.7,2.9-2.9,3.1l-18.5,0c-0.6-0.2-1-0.7-1-1.4V97.2c-0.3-4.6-3.7-7.4-8.2-7.7
			c-5.9-0.4-10.5,1.7-10.9,8.2c-0.4,7.4,0.3,15.1,0,22.5c0,0.7-0.6,1.3-1.3,1.3h-17.8c-1.9-0.2-3.1-1.8-3.2-3.6s0.1-4,0.1-5.8
			c0-9.7-0.4-19.5,0-29.2c0-0.4-0.1-0.7,0-1h-7.5c-2.3,0-3.5-3.2-2-4.8c13.1-11.9,26.1-23.9,39.1-35.8c2-1.1,3.6-0.6,5.3,0.8
			c5.3,4.5,10.5,9.7,15.6,14.5c7.5,6.8,15,13.6,22.4,20.5c1.6,1.6,0.3,4.9-1.9,4.9L370.2,81.8L370.2,81.8z"/>
	</g>
	<g enable-background="new    ">
		<path fill="#FEFEFE" d="M404,74.5V49.2h4.8l10.8,17.9H417l10.6-17.9h4.8l0.1,25.3H427l0-16.9h1l-8.5,14.2h-2.6l-8.6-14.2h1.2v16.9
			H404z"/>
		<path fill="#FEFEFE" d="M444.1,74.8c-1.5,0-2.8-0.3-3.9-0.8c-1.1-0.5-1.9-1.2-2.5-2.1c-0.6-0.9-0.9-1.9-0.9-3c0-1.2,0.3-2.2,0.8-3
			s1.5-1.5,2.7-2c1.2-0.5,2.8-0.7,4.8-0.7h5.2v3.3h-4.6c-1.3,0-2.2,0.2-2.7,0.7c-0.5,0.4-0.7,1-0.7,1.6c0,0.7,0.3,1.3,0.8,1.7
			c0.6,0.4,1.3,0.6,2.3,0.6c0.9,0,1.8-0.2,2.5-0.7c0.7-0.4,1.3-1.1,1.6-2l0.9,2.6c-0.4,1.3-1.2,2.2-2.2,2.9S445.8,74.8,444.1,74.8z
			 M450,74.5v-3.8l-0.4-0.8v-6.8c0-1.2-0.4-2.1-1.1-2.8c-0.7-0.7-1.9-1-3.4-1c-1,0-2.1,0.2-3.1,0.5c-1,0.3-1.8,0.8-2.5,1.3l-2-3.9
			c1.1-0.7,2.3-1.3,3.8-1.7c1.5-0.4,3-0.6,4.6-0.6c3,0,5.3,0.7,6.9,2.1c1.6,1.4,2.5,3.6,2.5,6.5v11.1H450z"/>
		<path fill="#FEFEFE" d="M460.8,74.5V49.2h11c2.3,0,4.2,0.4,5.9,1.1c1.6,0.7,2.9,1.8,3.8,3.2c0.9,1.4,1.3,3,1.3,4.9
			c0,1.9-0.4,3.5-1.3,4.9c-0.9,1.4-2.2,2.4-3.8,3.2c-1.6,0.7-3.6,1.1-5.9,1.1h-7.7l2.6-2.6v9.6H460.8z M466.7,65.5l-2.6-2.8h7.4
			c1.8,0,3.2-0.4,4-1.2c0.9-0.8,1.3-1.8,1.3-3.2c0-1.4-0.4-2.5-1.3-3.3c-0.9-0.8-2.2-1.2-4-1.2h-7.4l2.6-2.8V65.5z"/>
		<path fill="#FEFEFE" d="M486.5,74.5V55.1h5.4v5.5l-0.8-1.6c0.6-1.4,1.5-2.4,2.8-3.1c1.3-0.7,2.8-1.1,4.7-1.1V60
			c-0.2,0-0.5,0-0.7-0.1c-0.2,0-0.4,0-0.6,0c-1.5,0-2.8,0.4-3.7,1.3c-1,0.9-1.4,2.2-1.4,4.1v9.2H486.5z"/>
		<path fill="#FEFEFE" d="M504.8,52.3c-1,0-1.9-0.3-2.5-0.9c-0.7-0.6-1-1.3-1-2.2s0.3-1.6,1-2.2c0.7-0.6,1.5-0.9,2.5-0.9
			s1.9,0.3,2.5,0.8s1,1.3,1,2.2c0,0.9-0.3,1.7-1,2.3S505.8,52.3,504.8,52.3z M501.9,74.5V55.1h5.6v19.4H501.9z"/>
		<path fill="#FEFEFE" d="M537.7,54.8c1.5,0,2.9,0.3,4.1,0.9c1.2,0.6,2.1,1.6,2.8,2.8c0.7,1.3,1,2.9,1,4.9v11.1H540V64.2
			c0-1.6-0.3-2.7-1-3.5c-0.7-0.7-1.6-1.1-2.7-1.1c-0.8,0-1.6,0.2-2.2,0.6c-0.7,0.4-1.2,0.9-1.5,1.7c-0.4,0.7-0.5,1.7-0.5,2.9v9.8
			h-5.6V64.2c0-1.6-0.3-2.7-1-3.5c-0.6-0.7-1.5-1.1-2.7-1.1c-0.8,0-1.6,0.2-2.2,0.6c-0.7,0.4-1.2,0.9-1.5,1.7
			c-0.4,0.7-0.5,1.7-0.5,2.9v9.8h-5.6V55.1h5.4v5.3l-1-1.6c0.7-1.3,1.6-2.3,2.9-3c1.2-0.7,2.7-1,4.2-1c1.8,0,3.3,0.5,4.7,1.4
			c1.3,0.9,2.2,2.3,2.7,4.1l-2-0.5c0.7-1.5,1.7-2.7,3.1-3.6C534.2,55.2,535.9,54.8,537.7,54.8z"/>
		<path fill="#FEFEFE" d="M560.5,74.8c-2.2,0-4.2-0.4-5.8-1.3s-3-2.1-3.9-3.6s-1.4-3.2-1.4-5.2c0-2,0.5-3.7,1.4-5.2
			c0.9-1.5,2.1-2.7,3.7-3.5c1.6-0.9,3.3-1.3,5.3-1.3c1.9,0,3.6,0.4,5.1,1.2c1.5,0.8,2.7,2,3.6,3.5c0.9,1.5,1.3,3.3,1.3,5.4
			c0,0.2,0,0.5,0,0.7c0,0.3,0,0.5-0.1,0.8H554v-3.3h12.8l-2.2,1c0-1-0.2-1.9-0.6-2.6c-0.4-0.7-1-1.3-1.7-1.8
			c-0.7-0.4-1.6-0.6-2.5-0.6c-1,0-1.8,0.2-2.5,0.6c-0.7,0.4-1.3,1-1.7,1.8c-0.4,0.8-0.6,1.7-0.6,2.7V65c0,1.1,0.2,2,0.7,2.8
			c0.5,0.8,1.1,1.4,2,1.8c0.9,0.4,1.9,0.6,3,0.6c1,0,1.9-0.2,2.7-0.5c0.8-0.3,1.5-0.8,2.2-1.4l3,3.3c-0.9,1-2,1.8-3.4,2.3
			C563.8,74.5,562.3,74.8,560.5,74.8z"/>
	</g>
	<g enable-background="new    ">
		<path fill="#FEFEFE" d="M404,117.9V92.6h11c2.3,0,4.2,0.4,5.9,1.1c1.6,0.7,2.9,1.8,3.8,3.2c0.9,1.4,1.3,3,1.3,4.9
			c0,1.9-0.4,3.5-1.3,4.9c-0.9,1.4-2.2,2.4-3.8,3.1s-3.6,1.1-5.9,1.1h-7.7l2.6-2.6v9.6H404z M409.9,108.9l-2.6-2.7h7.4
			c1.8,0,3.2-0.4,4-1.2c0.9-0.8,1.3-1.9,1.3-3.2c0-1.4-0.4-2.5-1.3-3.3c-0.9-0.8-2.2-1.2-4-1.2h-7.4l2.6-2.8V108.9z M420.1,117.9
			l-6.3-9.2h6.3l6.4,9.2H420.1z"/>
		<path fill="#FEFEFE" d="M439.8,118.1c-2.2,0-4.2-0.4-5.8-1.3s-3-2.1-3.9-3.6s-1.4-3.2-1.4-5.2c0-2,0.5-3.7,1.4-5.2
			c0.9-1.5,2.1-2.7,3.7-3.5c1.6-0.9,3.3-1.3,5.3-1.3c1.9,0,3.6,0.4,5.1,1.2s2.7,2,3.6,3.5c0.9,1.5,1.3,3.3,1.3,5.4
			c0,0.2,0,0.5,0,0.7s0,0.5-0.1,0.8h-15.8v-3.3h12.8l-2.2,1c0-1-0.2-1.9-0.6-2.6c-0.4-0.7-1-1.3-1.7-1.8c-0.7-0.4-1.6-0.6-2.5-0.6
			c-1,0-1.8,0.2-2.5,0.6c-0.7,0.4-1.3,1-1.7,1.8c-0.4,0.8-0.6,1.7-0.6,2.7v0.9c0,1.1,0.2,2,0.7,2.8c0.5,0.8,1.1,1.4,2,1.8
			c0.9,0.4,1.9,0.6,3,0.6c1,0,1.9-0.2,2.7-0.5c0.8-0.3,1.5-0.8,2.2-1.4l3,3.3c-0.9,1-2,1.8-3.4,2.3
			C443.1,117.9,441.6,118.1,439.8,118.1z M435.7,95.9l4.9-5.2h6.1l-6.5,5.2H435.7z"/>
		<path fill="#FEFEFE" d="M464.8,98.1c1.5,0,2.9,0.3,4.1,0.9c1.2,0.6,2.2,1.6,2.9,2.8c0.7,1.3,1,2.9,1,4.9v11.1h-5.6v-10.3
			c0-1.6-0.3-2.7-1-3.5c-0.7-0.7-1.7-1.1-2.9-1.1c-0.9,0-1.7,0.2-2.4,0.6c-0.7,0.4-1.3,0.9-1.7,1.7c-0.4,0.8-0.6,1.8-0.6,3v9.6H453
			V98.4h5.4v5.4l-1-1.6c0.7-1.3,1.7-2.3,3-3C461.6,98.5,463.1,98.1,464.8,98.1z"/>
		<path fill="#FEFEFE" d="M487.3,118.1c-2.1,0-3.9-0.4-5.5-1.3c-1.6-0.9-2.9-2.1-3.8-3.6s-1.4-3.2-1.4-5.2c0-2,0.5-3.7,1.4-5.2
			c0.9-1.5,2.2-2.7,3.8-3.5c1.6-0.9,3.4-1.3,5.5-1.3c2,0,3.9,0.4,5.5,1.3c1.6,0.9,2.9,2,3.8,3.5c0.9,1.5,1.4,3.2,1.4,5.2
			c0,1.9-0.5,3.6-1.4,5.2s-2.2,2.7-3.8,3.6C491.2,117.7,489.4,118.1,487.3,118.1z M487.3,113.5c0.9,0,1.8-0.2,2.5-0.7
			c0.7-0.4,1.3-1.1,1.8-1.9c0.4-0.8,0.7-1.8,0.7-2.9c0-1.1-0.2-2.1-0.7-2.9c-0.4-0.8-1-1.4-1.8-1.8c-0.7-0.4-1.6-0.7-2.5-0.7
			c-0.9,0-1.8,0.2-2.5,0.7s-1.3,1-1.8,1.8c-0.4,0.8-0.7,1.8-0.7,2.9c0,1.1,0.2,2.1,0.7,2.9c0.4,0.8,1,1.4,1.8,1.9
			S486.4,113.5,487.3,113.5z"/>
		<path fill="#FEFEFE" d="M506.5,117.9l-8.2-19.4h5.8l6.8,16.7H508l7-16.7h5.4l-8.2,19.4H506.5z"/>
		<path fill="#FEFEFE" d="M522.4,103l2.4-8.7l0.8,3.3c-1,0-1.9-0.3-2.5-0.9c-0.7-0.6-1-1.5-1-2.5c0-1,0.3-1.9,1-2.5
			c0.7-0.6,1.5-1,2.5-1c1,0,1.8,0.3,2.5,1c0.7,0.6,1,1.5,1,2.5c0,0.3,0,0.6-0.1,0.9c0,0.3-0.1,0.7-0.3,1.1c-0.1,0.4-0.3,1-0.6,1.6
			l-2.1,5.2H522.4z"/>
	</g>
</g>
<path d="M233,87.6h-13.9v13.7h-8.4V87.6h-13.9v-7.8h13.9V66h8.4v13.7H233V87.6z"/>
<path d="M680.9,87.6H667v13.7h-8.4V87.6h-13.9v-7.8h13.9V66h8.4v13.7h13.9V87.6z"/>
<g>
	<path fill="#B33930" d="M719.8,72.2l11.3-25.3h5.8l11.3,25.3h-6.1l-9.3-22.3h2.3l-9.3,22.3H719.8z M725.5,66.8l1.6-4.4h13l1.6,4.4
		H725.5z"/>
	<path fill="#B33930" d="M753.3,50c-1,0-1.9-0.3-2.5-0.9c-0.7-0.6-1-1.3-1-2.2s0.3-1.6,1-2.2c0.7-0.6,1.5-0.9,2.5-0.9
		c1,0,1.9,0.3,2.5,0.8c0.7,0.6,1,1.3,1,2.2c0,0.9-0.3,1.7-1,2.3C755.2,49.7,754.3,50,753.3,50z M750.5,72.2V52.7h5.6v19.4H750.5z"/>
	<path fill="#B33930" d="M769.7,72.5c-1.8,0-3.5-0.4-5-1.2c-1.5-0.8-2.6-2-3.5-3.5c-0.9-1.5-1.3-3.3-1.3-5.3c0-2,0.4-3.8,1.3-5.3
		s2-2.7,3.5-3.5c1.5-0.8,3.1-1.2,5-1.2c1.6,0,3.1,0.4,4.3,1.1s2.2,1.8,2.9,3.3s1,3.3,1,5.6c0,2.3-0.3,4.1-1,5.6
		c-0.7,1.5-1.6,2.6-2.8,3.3S771.4,72.5,769.7,72.5z M770.7,67.8c0.9,0,1.7-0.2,2.5-0.7c0.7-0.4,1.3-1.1,1.8-1.9
		c0.4-0.8,0.7-1.8,0.7-2.9c0-1.1-0.2-2.1-0.7-2.9c-0.4-0.8-1-1.4-1.8-1.8c-0.7-0.4-1.6-0.7-2.5-0.7c-0.9,0-1.8,0.2-2.5,0.7
		c-0.7,0.4-1.3,1-1.8,1.8c-0.4,0.8-0.7,1.8-0.7,2.9c0,1.1,0.2,2.1,0.7,2.9c0.4,0.8,1,1.4,1.8,1.9C768.9,67.6,769.7,67.8,770.7,67.8z
		 M775.8,72.2v-4l0.1-5.8l-0.4-5.7V45.4h5.6v26.8H775.8z"/>
	<path fill="#B33930" d="M796,72.5c-2.2,0-4.2-0.4-5.8-1.3c-1.7-0.9-3-2.1-3.9-3.6c-0.9-1.5-1.4-3.2-1.4-5.2c0-2,0.5-3.7,1.4-5.2
		c0.9-1.5,2.1-2.7,3.7-3.5s3.3-1.3,5.3-1.3c1.9,0,3.6,0.4,5.2,1.2c1.5,0.8,2.7,2,3.6,3.5c0.9,1.5,1.3,3.3,1.3,5.4c0,0.2,0,0.5,0,0.7
		c0,0.3,0,0.5-0.1,0.8h-15.8v-3.3h12.8l-2.2,1c0-1-0.2-1.9-0.6-2.6c-0.4-0.7-1-1.3-1.7-1.8c-0.7-0.4-1.6-0.6-2.5-0.6
		c-1,0-1.8,0.2-2.5,0.6c-0.7,0.4-1.3,1-1.7,1.8s-0.6,1.7-0.6,2.7v0.9c0,1.1,0.2,2,0.7,2.8c0.5,0.8,1.1,1.4,2,1.8
		c0.9,0.4,1.9,0.6,3,0.6c1,0,1.9-0.2,2.7-0.5c0.8-0.3,1.5-0.8,2.2-1.4l3,3.3c-0.9,1-2,1.8-3.4,2.3C799.3,72.2,797.7,72.5,796,72.5z"
		/>
	<path fill="#B33930" d="M716.4,115.6V90.3h5.9v20.5H735v4.8H716.4z"/>
	<path fill="#B33930" d="M746.9,115.8c-2.1,0-3.9-0.4-5.5-1.3s-2.9-2.1-3.8-3.6s-1.4-3.2-1.4-5.2c0-2,0.5-3.7,1.4-5.2
		c0.9-1.5,2.2-2.7,3.8-3.5s3.4-1.3,5.5-1.3c2,0,3.9,0.4,5.5,1.3s2.9,2,3.8,3.5c0.9,1.5,1.4,3.2,1.4,5.2c0,1.9-0.5,3.6-1.4,5.2
		c-0.9,1.5-2.2,2.7-3.8,3.6S749,115.8,746.9,115.8z M746.9,111.2c0.9,0,1.8-0.2,2.5-0.7c0.7-0.4,1.3-1.1,1.8-1.9
		c0.4-0.8,0.7-1.8,0.7-2.9c0-1.1-0.2-2.1-0.7-2.9c-0.4-0.8-1-1.4-1.8-1.8c-0.7-0.4-1.6-0.7-2.5-0.7s-1.8,0.2-2.5,0.7
		c-0.7,0.4-1.3,1-1.8,1.8c-0.4,0.8-0.7,1.8-0.7,2.9c0,1.1,0.2,2.1,0.7,2.9c0.4,0.8,1,1.4,1.8,1.9C745.2,111,746,111.2,746.9,111.2z"
		/>
	<path fill="#B33930" d="M770.8,115.8c-2.1,0-4-0.4-5.6-1.3c-1.6-0.9-2.9-2-3.8-3.6s-1.4-3.2-1.4-5.2c0-2,0.5-3.7,1.4-5.2
		c0.9-1.5,2.2-2.7,3.8-3.5s3.5-1.3,5.6-1.3c2,0,3.8,0.4,5.3,1.3s2.6,2.1,3.4,3.7l-4.4,2.3c-0.5-0.9-1.1-1.6-1.9-2s-1.6-0.7-2.5-0.7
		c-1,0-1.8,0.2-2.6,0.7s-1.4,1-1.8,1.8c-0.4,0.8-0.7,1.8-0.7,2.9c0,1.1,0.2,2.1,0.7,2.9c0.4,0.8,1.1,1.4,1.8,1.8s1.6,0.7,2.6,0.7
		c0.9,0,1.7-0.2,2.5-0.6c0.8-0.4,1.4-1.1,1.9-2l4.4,2.4c-0.7,1.6-1.8,2.8-3.4,3.6C774.6,115.4,772.8,115.8,770.8,115.8z"/>
	<path fill="#B33930" d="M788.7,115.8c-1.5,0-2.8-0.3-3.9-0.8c-1.1-0.5-1.9-1.2-2.5-2.1c-0.6-0.9-0.9-1.9-0.9-3c0-1.2,0.3-2.2,0.8-3
		c0.6-0.9,1.5-1.5,2.7-2c1.2-0.5,2.8-0.7,4.8-0.7h5.2v3.3h-4.6c-1.3,0-2.2,0.2-2.7,0.7c-0.5,0.4-0.7,1-0.7,1.6
		c0,0.7,0.3,1.3,0.8,1.7s1.3,0.6,2.3,0.6c0.9,0,1.8-0.2,2.5-0.7c0.7-0.4,1.3-1.1,1.6-2l0.9,2.6c-0.4,1.3-1.2,2.2-2.2,2.9
		C791.8,115.5,790.4,115.8,788.7,115.8z M794.7,115.6v-3.8l-0.4-0.8v-6.8c0-1.2-0.4-2.1-1.1-2.8c-0.7-0.7-1.9-1-3.4-1
		c-1,0-2.1,0.2-3.1,0.5c-1,0.3-1.8,0.8-2.5,1.3l-2-3.9c1.1-0.7,2.3-1.3,3.8-1.7c1.5-0.4,3-0.6,4.6-0.6c3,0,5.3,0.7,6.9,2.1
		c1.6,1.4,2.5,3.6,2.5,6.5v11.1H794.7z"/>
	<path fill="#B33930" d="M805,115.6V88.7h5.6v26.8H805z"/>
</g>
</svg>
