<?xml version="1.0" encoding="UTF-8"?>
<svg id="Calque_1" data-name="Calque 1" xmlns="http://www.w3.org/2000/svg" viewBox="0 0 617.53 166.6">
  <defs>
    <style>
      .cls-1 {
        fill: #194483;
      }

      .cls-2 {
        font-family: Montserrat-SemiBold, Montserrat;
        font-size: 36.14px;
        font-weight: 600;
      }

      .cls-2, .cls-3 {
        fill: #fefefe;
      }

      .cls-4 {
        fill: #b33930;
      }

      .cls-5 {
        fill: #185a32;
      }
    </style>
  </defs>
  <g id="xEsJfO">
    <g>
      <path class="cls-5" d="M70.01,8.37c4.74-.44,9.52,2.1,14.25,2.76,7.19,1,10.6-.78,17.16-2.28,11.43-2.61,13.29,5.46,20.75,10.98,4.68,3.46,8.55,3.76,13.83,5.38,10.71,3.29,8.57,13,13.11,21.07,2.52,4.48,5.71,6.61,9.07,10.14,7.62,8.03,1.63,15.13,1.12,24.01-.07,1.19-.07,2.78,0,3.97.55,9.82,6.9,15.54-1.33,24.64-3.69,4.07-7.04,6.45-9.42,11.77-3.6,8.03-2.03,16.79-12.15,20.19-4.61,1.55-8.38,1.94-12.67,4.7-8.94,5.76-10.08,15.2-23.2,11.88-4.84-1.22-8.37-2.62-13.6-2.36-9.28.47-16.12,7.06-24.51-.64-3.61-3.31-5.73-6.62-10.18-9.31-8.55-5.17-17.41-2.26-20.96-14.07-1.38-4.59-1.9-8.54-4.42-12.81-2.4-4.07-5.48-6.34-8.5-9.72-7.72-8.63-1.48-14.99-.98-24.29.32-6-1.29-9.52-2.34-15.04-2.3-12.09,7.06-13.91,12.19-22.42,2.49-4.12,2.91-7.93,4.34-12.33,3.58-11.05,12.37-8.51,20.64-13.25,6.31-3.61,10.66-12.3,17.81-12.98ZM86.82,17.12C28.48,18.94,2.24,92.07,43.91,132.26c37.66,36.32,97.88,15.01,107.98-35.09,8.18-40.6-22.84-81.36-65.07-80.04Z"/>
      <path class="cls-5" d="M86.25,20.37c42.71-1.8,72.82,40.93,61.4,81.17-13.31,46.87-72.05,61.97-104.94,24.86C7.78,87,33.11,22.61,86.25,20.37ZM85.83,21.79c-51.3,2.4-75.99,64.64-42.76,103.13,32.38,37.51,91.05,22.27,103.62-24.75,10.57-39.54-19.16-80.32-60.86-78.37Z"/>
      <path class="cls-1" d="M69.99,76.35c-.15.15-.38.27-.6.32-2.34.12-4.89.88-7.19,1s-1.63-1.56-2.12-3.24c-1.66-5.59-9.66-5.12-10.88.27-.5,2.22.24,6.03.52,8.39.83,6.92,1.57,14.81,2.85,21.59.51,2.69,1.86,4.95,4.83,5.19,3.95.33,6.47-2.44,6.43-6.29-.01-1.4-1-3.25.81-3.84,2.05-.66,5.02-.43,7.17-1.03,1.97-.29,1.97,2.32,2.05,3.74.67,12.4-10.23,18.61-21.47,15.54-7.68-2.1-9.4-8.08-10.43-15.13-1.19-8.16-2.03-16.38-3.13-24.56-.43-8.52,3.81-14.23,12.06-16.19s16.49.45,18.86,9.42c.28,1.06,1.02,4.04.24,4.81Z"/>
      <path class="cls-1" d="M98.54,55.96c.96-.07,2.03-.22,2.43.88.31.86.67,4.32.72,5.36.06,1.33.06,2.11-1.39,2.44-4.31.97-9.5.9-13.77,1.91-1.77.42-1.22,1.85-1.08,3.27.27,2.72.7,5.77,1.13,8.47.2,1.25.13,2.28,1.74,2.21,3.63-.16,7.67-1.37,11.3-1.55,1.05-.05,1.68-.04,2.01,1.09s.67,4.1.74,5.33c.06,1.02.14,1.9-.98,2.26l-12.06,1.64c-1.2.22-1.13,1.02-1.07,2.03.2,3.36.95,8.49,1.59,11.82.23,1.22.45,1.43,1.73,1.39,3.88-.14,8.36-1.26,12.3-1.68,1.69-.18,3.13-.72,3.55,1.36.19.93.85,5.34.71,6s-.69,1.08-1.34,1.2l-23.55,3.28c-2.07.25-2.07-1.38-2.31-2.91-1.1-7.09-1.78-14.31-2.72-21.43-1.18-8.94-2.66-17.91-3.63-26.87-.19-1.78-.88-4.13,1.64-4.39,7.39-.62,14.97-2.53,22.32-3.1Z"/>
      <path class="cls-1" d="M117.54,62.46c-.42.38-.35,1.06-.32,1.58.12,2.92.81,7.05,1.29,10.01.16.96.18,2.05,1.45,2.05l11.88-1.68c.86-.04,1.49.22,1.75,1.07.32,1.05.83,4.79.86,5.93.02.78-.28,1.35-.99,1.69-3.83.81-8.11.84-11.9,1.66-.73.16-1.13.25-1.35,1.05.37,4.57,1.08,9.16,1.77,13.7.35.68.99.63,1.66.6,4.28-.2,9.02-1.61,13.28-1.83.98-.05,1.86.01,2.16,1.09s.7,4.46.74,5.61c.03.88-.16,1.6-1.03,1.94l-23.91,3.36c-.57.04-1.23-.23-1.5-.75-2.53-17.71-4.77-35.5-7.12-53.25.05-1.02.51-1.39,1.44-1.63,7.04-.8,14.02-2.1,21.05-2.96,1.48-.18,3.74-.94,4.22.96.27,1.04.73,5.15.63,6.15-.08.78-.36,1.08-1.1,1.3-4.15.7-8.36,1.09-12.51,1.76-.58.09-2.08.25-2.45.59Z"/>
    </g>
  </g>
  <g>
    <rect class="cls-4" x="265.24" y="12.59" width="337.78" height="141.42" rx="20.99" ry="20.99"/>
    <g id="aIuODB">
      <path class="cls-3" d="M370.23,81.83v36.59c0,1.26-1.7,2.94-2.93,3.11l-18.46-.04c-.6-.23-.97-.73-.99-1.39v-22.88c-.28-4.63-3.67-7.4-8.16-7.67-5.88-.36-10.51,1.74-10.85,8.17-.39,7.37.3,15.08,0,22.49-.03.69-.64,1.31-1.34,1.34h-17.83c-1.9-.25-3.08-1.75-3.22-3.62s.11-3.99.11-5.85c.01-9.69-.38-19.54,0-29.2.01-.36-.1-.71,0-1.04h-7.48c-2.26,0-3.48-3.2-1.98-4.85,13.08-11.9,26.09-23.89,39.13-35.83,2.05-1.14,3.62-.59,5.28.82,5.3,4.51,10.48,9.73,15.64,14.46,7.46,6.83,14.97,13.62,22.42,20.46,1.59,1.59.34,4.94-1.87,4.94h-7.48Z"/>
    </g>
    <text class="cls-2" transform="translate(401 74.5)"><tspan x="0" y="0">MaPrime</tspan><tspan x="0" y="43.36">Rénov</tspan></text>
  </g>
  <path d="M232.98,87.56h-13.87v13.71h-8.38v-13.71h-13.87v-7.84h13.87v-13.71h8.38v13.71h13.87v7.84Z"/>
</svg>