<?xml version="1.0" encoding="UTF-8"?>
<svg id="Calque_1" data-name="Calque 1" xmlns="http://www.w3.org/2000/svg" viewBox="0 0 688.18 412.91">
  <defs>
    <style>
      .cls-1 {
        fill: #ffffff;
      }
    </style>
  </defs>
  <g id="eOA0JN">
    <g>
      <path class="cls-1" d="M614.23,332.83c.01.84.28,1.07-.7.95-2.37-.3-5.11-.79-7.47-.95-146.5-9.91-300,12.02-443.85,38.72-26.16,4.86-52.21,11.12-78.42,15.52-8.2,1.38-26.2,4.21-33.63,1.78-3.94-1.29-3.25-3.04.06-4.69,19.29-9.62,52.89-16.12,74.5-20.93,63.28-14.09,128.71-24.71,193.15-32.32,81.17-9.58,165.75-15.48,247.16-5.99,16.52,1.93,32.91,4.72,49.2,7.91Z"/>
      <path class="cls-1" d="M398.65,225.54c-.3.45,7.12,3.49,8.06,4.05,12.16,7.14,13.66,20.52,6.48,32-8.56,13.69-23.62,21.17-38.96,24.83-3.92.93-9.61,1.05-12.83,2-1.58.47-2.06,4.61-6.39,3.77-3.27-.63-3.76-3.05-5.55-4.37-1.2-.89-2.86-.94-4.24-2.19-2.36-2.14-4.42-6.71-.66-8.61,1.43-.73,3.66-.2,4.06-1.38,1-7.74,2.65-15.37,4.19-23,.69-3.44,2.51-8.38,2.77-11.59.2-2.51-1.08-4.64-.75-7.11.35-2.69,1.93-3.93,3.76-5.67,4.56-11.28,6.56-23.55,10.37-35.13.17-.68-.04-.91-.72-.71-2.87.86-3.88,3.83-7.37.43-2.53-2.46-4.02-7.23-1.3-10.09,1.28-1.35,7.08-3.95,9.07-4.77,12.48-5.17,32.81-8.37,44.08.59,17.62,14.02-.18,37.82-14.08,46.97ZM377.39,221.08c9.48-3.9,19-9.88,24.63-18.63,3.02-4.69,6.94-13.15-.87-15.26-2.41-.65-12.08-.65-13.75.89-.63.58-3.43,8.63-3.93,10.15-.89,2.67-6.86,21.96-6.07,22.85ZM364.04,273.98c13.26-1.19,35.84-10.97,37.52-26.01,1.68-15.04-20.49-12.72-29.11-8.34l-8.42,34.35Z"/>
      <path class="cls-1" d="M43.7,282.46l-7.63,36.62c-.33,1.92-1.61,4.28-3.67,4.74-3.86.87-10.14-4.31-10.43-8.2-.32-4.32,2.15-14.66,3.02-19.48.7-3.87,3.15-11.34,3.06-14.71-.03-.96-1.69-2.91-2.01-4.45-1.36-6.67,4.07-5.34,4.88-7.07l11.71-43.16c.09-.68,0-.95-.73-.73-2.07.61-3.37,4.06-6.96,2-3.2-1.84-5.7-7.23-3.78-10.76,2.45-4.5,15.03-10.13,19.99-11.66,27.5-8.47,56.58,4.34,44.9,36.99-7.5,20.94-31.34,35.69-52.35,39.86ZM68.75,217.27c-1.89.18-6.49.83-7.43,2.46-4.99,14.9-9.16,30.03-13.13,45.23-.28.38.48,1.09.64,1.11.63.06,8.6-3.83,9.8-4.53,4.76-2.77,12.45-9.01,15.88-13.3,8.47-10.59,16.21-33.08-5.75-30.96Z"/>
      <path class="cls-1" d="M135.96,199.94c2.38-.39,4.76.19,6.82,1.35,3.66,2.05,1.88,1.9,6.69,3.2,25.15,6.84,18.48,43.79,12.96,62.46-6.54,22.11-24.9,58.73-53.37,42.23-15.57-9.03-11.78-39.26-8.42-54.07,3.37-14.84,18.22-52.37,35.32-55.17ZM143.4,214.75c-7.38,1.03-16.05,16.67-19.11,22.95-7.07,14.51-15.94,44.44-9.34,59.66,2.05,4.72,4.86,4.91,9.25,2.55,18.83-10.11,33.98-59.87,26.76-79.1-1.11-2.97-4-6.55-7.56-6.06Z"/>
      <path class="cls-1" d="M137.45,38.75c11.47-1.8,20.79,7.15,21.41,18.4.37,6.84-3.26,27.16-13.65,23.05-8.79-3.47.03-18.81-1.92-25.28-.13-.43-.55-1.27-.99-1.34-5.67,2.03-10.11,7.17-13.81,11.8-13.84,17.28-28.45,52.01-24.4,74.24,2.81,15.42,11.96,11.05,20.9,3.35,8.01-6.9,12.34-15.35,19.04-22.5,3.92-4.19,11.64-4.55,12.64,1.71s-9.8,19.72-13.89,24.25c-10.17,11.24-22.74,20.77-38.5,14.26-26.73-11.03-14.19-57.96-5.35-77.89,6.06-13.66,22.43-41.52,38.52-44.05Z"/>
      <path class="cls-1" d="M226.58,84.61c4.48-.3,8.76-1.75,13.18-2.39,3.7-.53,8.93-1.51,12.39-.19,3.09,1.18,8.59,5.95,5.06,9.23-1.67,1.55-17.51,4.87-21.24,5.96-2.19.64-13.48,3.89-14.37,4.92-2.16,7.41-4.55,14.96-6.17,22.51-.35,1.64-2.05,10.16-1.5,10.93.61.85,2.87.43,3.86.32,12.18-1.31,25.34-6.91,37.73-8.28,7.76,2,4.9,11.71-1.36,13.99-9.03,3.3-25.83,7.43-35.4,9.1-8.31,1.45-12.4,1.24-17.88-5.55-1.98-2.45-3.09-4.05-3.01-7.41.12-5.13,2.05-12.92,3.15-18.13.71-3.35,4.71-16.81,4.19-18.81-.24-.93-1.48-1.92-1.75-3.21-1.09-5.13,2.18-5.79,5.74-7.88l10.37-32.65c-2.52-3.39-8.88-9.98-2.65-13.03,10.71-5.24,38.35-12.15,49.91-10.8,4.18.49,9.79,3.55,10.97,7.85,1.46,5.36-5.99,3.65-8.93,3.97-7.07.76-16.63,3.12-23.49,5.18-1.65.5-7.42,2.15-8.39,2.98-1.22,1.05-6.99,19.15-7.95,22.21s-1.77,6.09-2.45,9.16Z"/>
      <path class="cls-1" d="M330.07,60.23c-2.88-3.26,1.18-10.72,2.18-14.57,1.38-5.33,3.07-9.22-4.58-7.05-10.22,2.9-28.32,21.82-27.93,32.89.34,9.94,20.76,17.91,27.94,24.01,30.74,26.08-19.12,67.83-46.22,43.25-5.24-4.75-10.61-16.28-1.82-20.12,1.92-.84,3.24-1,5.14,0,3.82,2,3.01,5.87,4.66,9.18,4.54,9.16,19.16,3.51,25.16-1.42,22.9-18.78-9.17-27.56-20.54-37.82-21.32-19.24-.2-48.61,19.21-59.43,9.87-5.5,17.41-7.3,27.86-1.98s7.83,19.8,2.25,28.14c-2.55,3.81-8.8,10.03-13.31,4.92Z"/>
      <path class="cls-1" d="M522.75,209.71c6.85-.65,15.05-4.19,21.95-3.4,4.96.57,13.15,7.61,5.88,10.72-5.56,2.38-15.87,3.71-22.39,5.79-3.53,1.12-7.07,2.26-10.38,3.96-2.07,9.3-6.36,20.22-6.92,29.68-.09,1.45-.37,3.43,1.66,3.18l37.67-7.9c6.56.05,5.08,12.68-.65,13.72-11.96,2.09-23.85,6.59-35.7,8.8-2.83.53-4.97,1.13-7.94.52-4.1-.84-11.42-8.48-11.36-12.86.08-5.53,2.87-16.27,4.12-22.12.61-2.85,3.7-12.46,3.2-14.37-.27-1.02-1.52-2.09-1.76-3.71-.83-5.54,4.22-4.9,5.48-7.18l9.65-31.9c.24-1.3-1.14-1.88-1.81-2.91-1.57-2.42-4.66-7.81-.94-9.68,2.46-1.23,7.67-2.89,10.49-3.85,9.48-3.22,28.84-8.29,38.46-6.8,2.95.46,7.65,3.02,9.19,5.64,4.08,6.92-3.88,5.21-7.58,5.62-10.24,1.12-21.29,4.58-30.92,8.14-3.24,10.25-7.31,20.34-9.38,30.91Z"/>
      <path class="cls-1" d="M216.57,188.08c4.98-.63,9.93.92,14.3,3.25,8.61,4.58,8.16,14.54,5.04,22.52-1.9,4.86-7.54,14.01-13.74,11.39-7.87-3.32,2.83-16.29.87-22.13-.95-2.84-8.14.94-9.82,1.89-9.38,5.29-22.52,20.14-20.73,31.62,1.16,7.41,20.14,15.58,26.18,20.79,25.71,22.17-8.49,57.33-36.21,48.57-7.01-2.21-15.8-10.01-15.25-17.93.31-4.54,4.94-7.71,9.29-6.27,5.03,1.66,1.78,7.63,6.31,10.99,6.33,4.71,18.96-1.33,24-6.17,6.75-6.5,8.92-13.28,1.48-20.29-9.6-9.03-25.15-11.73-29.91-25.97-6.84-20.46,18.29-49.75,38.19-52.27Z"/>
      <path class="cls-1" d="M283.82,182.16c4.91-.56,8.96.55,13.31,2.73,10.56,5.27,9.3,17.32,4.36,26.31-2.46,4.47-7.87,11.52-13.36,6.92-4.34-3.64,1.46-12.28,2.1-17.19.87-6.63-1.61-5.82-6.79-3.82-9.75,3.76-25.19,20.54-23.7,31.59,1.13,8.32,18.25,15.47,24.63,20.36,34.22,26.18-18.9,67.19-44.23,42.75-4.92-4.74-9.31-16.01-.14-18.47,8.68-2.33,6.57,7.99,10.31,10.77,5.47,4.07,19.09-1.25,23.96-5.19,19.78-16.01-9.49-25.2-19.53-33.85-24.78-21.37,4.03-60.07,29.07-62.91Z"/>
      <path class="cls-1" d="M414.37,19.99c7.1-.43,15.14-.2,18.99,6.92,4.59,8.49-5.05,5.9-9.76,6.26-2.63.2-19.76,2.82-20.74,3.98-8.42,23.26-15.75,47.02-21.97,70.99-2.09,8.06-3.61,20.12-6.32,27.3-2.46,6.52-8.13,4.03-11.97.3-3.14-3.05-1.97-7.29-1.39-11.18,1.56-10.45,5.2-22.25,8.02-32.53,4.62-16.88,9.78-33.68,15.56-50.19l-1.11-.64c-5.76.71-16.91,5.97-22.26,4.74-3.79-.87-8.81-9.62-4.78-12.98,18.66-4.21,38.52-11.82,57.73-12.97Z"/>
      <path class="cls-1" d="M442.65,265.09c1.21,1.2,25.08-5.81,28.77-6.59,5.34-1.12,9.58-2.47,14.26,1.38,1.98,1.63,3.58,4.51,2,6.97-.62.97-9.12,3.69-11.02,4.31-9.09,2.96-26.84,8.99-35.75,9.74-6.06.51-8.7-1.28-12.36-5.92-3.08-3.92-2.24-7.43-1.72-12.11,2.75-24.85,13.74-60.99,22.73-84.57,1.03-2.71,2.84-8.35,4.35-10.48,4.12-5.8,14.73,1.27,14.43,7.46-5.7,16.9-11.96,33.64-17.05,50.74-1.42,4.79-10.55,37.19-8.66,39.06Z"/>
      <path class="cls-1" d="M334.22,180.64c4.36-1,11.99,3.42,11.49,8.49-.32,3.29-3.58,10.87-4.67,14.65-6.15,21.26-11.65,42.75-16.82,64.27-1.15,4.8-2.93,17.9-4.96,21.25-2.98,4.92-8.41,1.76-11.35-1.46s-1.26-9.81-.6-13.95c3.63-22.63,11.43-49.89,17.9-72.09,1.15-3.94,4.66-17.44,6.9-19.8.57-.6,1.28-1.17,2.1-1.36Z"/>
      <path class="cls-1" d="M644.27,131.2c4.61-.75,13.95,5.26,11.87,10.9-5.6,20.05-12.8,39.66-18.42,59.7-1.87,6.67-5.39,26.55-9.62,30.43-5.15,4.72-11.56-2.6-11.91-7.91-.55-8.38,8.34-35.18,11.04-44.87,3.82-13.71,7.75-30.15,12.59-43.29.9-2.43,1.46-4.47,4.46-4.96Z"/>
      <path class="cls-1" d="M184.9,21.92c4.69-1.04,11,3.4,11.89,8.17,1.53,8.19-5.32,23.4-12,28.31-2.06,1.51-7.45,2.75-8.78-.11-1.76-3.82,4.45-11.43,5.82-15.7.9-2.8,1.46-5.72,1.25-8.68-.25-3.46-4.04-10.69,1.82-11.99Z"/>
      <path class="cls-1" d="M622.95,269.36c-4.2,4.12-9.88,2.98-13.17-1.56-5.07-7,2.22-20.76,11.57-17.01,7.38,2.96,6.48,13.78,1.6,18.56Z"/>
    </g>
  </g>
</svg>
