<?xml version="1.0" encoding="UTF-8"?>
<svg id="Calque_1" data-name="Calque 1" xmlns="http://www.w3.org/2000/svg" viewBox="0 0 392.61 121.92">
  <defs>
    <style>
      .cls-1 {
        fill: #de772e;
      }

      .cls-2 {
        fill: #6ea845;
      }
    </style>
  </defs>
  <path class="cls-2" d="M65.07,18.45v6.87h-28.57c-3.69,0-8.59,5.99-8.59,9.52v7.96h30.91v6.87h-30.91v8.27c0,1.38,2.19,5.38,3.27,6.41,1.19,1.15,4.68,2.8,6.26,2.8h27.64v6.87h-28.26c-8.65,0-15.75-7.75-16.4-16.07-.46-5.83-.64-20.4.47-25.78,1.27-6.18,7.63-13.73,14.38-13.73h29.82Z"/>
  <path class="cls-1" d="M293.65,61.55c3.69,8.67,16.2,8.49,20.92.76l.42-.11,5.14,3.25c-10.63,17.24-36.23,8.63-34.59-11.86,1.59-19.93,29.43-23.87,35.74-4.52.26.81,1.15,3.36.48,3.89l-28.11,8.59ZM292.09,55.61l22.16-6.71c-6.47-11.24-22.7-5.91-22.16,6.71Z"/>
  <path class="cls-1" d="M270.54,74.03h-6.56v-4.68c-10.96,10.19-28.41,4.85-31.4-9.98-2.95-14.62,10.68-27.2,24.92-21.8,15.78,5.98,12.24,22.99,13.03,36.46ZM248.6,42.89c-13.2,1.91-13.24,23.91,1.17,25.21,17.81,1.6,18.03-27.98-1.17-25.21Z"/>
  <path class="cls-1" d="M203.09,38.28c.02.12.39,1.12.47,1.09,7.7-6.15,20.08-2.85,23.64,6.34.31.79,1.19,3.75,1.19,4.43v23.89h-6.56v-24.51c0-.25-1.16-2.57-1.43-2.95-3.78-5.39-12.17-5.54-15.69.2-.25.4-1.31,2.5-1.31,2.75v24.51h-6.56V19.39c.23-.08.37.31.47.31h5.31c.11,0,.25-.51.47-.16.59.4,0,.5,0,.63,0,5.23-.67,13.27,0,18.11Z"/>
  <path class="cls-2" d="M95.36,62.8c.15,0,.31-.04.45,0,.31.11,4.86,4.1,4.81,4.46-.25,1.61-5.57,4.73-7.15,5.36-16.46,6.6-32.77-8.55-25.97-25.34,5.42-13.37,24.32-15.95,33.13-4.67-.06.35-4.2,3.95-4.68,4.12-.81.28-2.42-1.99-3.32-2.61-4.05-2.82-10.4-2.65-14.44.12-7.34,5.02-7.53,16.53.19,21.31,5.28,3.27,13.43,2.63,16.97-2.75Z"/>
  <path class="cls-1" d="M332.05,37.19v22.64c0,7.37,10.8,11.23,15.92,5.3,2.41-2.79,2.37-6.46,2.52-9.97.25-5.97-.21-12-.01-17.97h6.25v23.89c0,1.25-1.72,5.1-2.45,6.3-6.25,10.29-22.51,9.26-27.27-1.87-.41-.97-1.51-3.86-1.51-4.74v-23.58h6.56Z"/>
  <path class="cls-1" d="M177.11,36.03c6.29-.31,12.25,2.16,16.29,6.95l-3.59,3.25-1.51.91c-9.19-10.44-25.66-2.17-22.22,11.59,1.99,7.97,11.03,11.63,18.23,7.93,1.66-.85,2.69-2.23,4.19-3.2.64.48,4.8,3.59,4.88,3.89.27,1.12-3.98,4.09-4.97,4.66-8.39,4.84-19.86,2.88-25.55-5.06-8.87-12.37-1.26-30.16,14.24-30.92Z"/>
  <path class="cls-2" d="M155.34,52.28c-1.29-3.13-2.61-6.44-4.82-9.08-2.14-2.58-5.99-6.16-8.46-7.84-18.55-11.53-41.05,9.5-31.47,28.72,1.23,2.58,2.96,4.78,5,6.66,1.01,1.06,2.96,2.17,1.92,2.72-3.87.79-7.5-1.57-9.78-4.55-2.96-3.93-4.34-8.83-4.37-13.71-.08-34.75,49.29-37.5,52-2.94h-.02Z"/>
  <path class="cls-2" d="M114.41,76.54c4.65,2.29,8.46,3.02,13.42,1.08,5.66-2.2,9.53-8.05,15.93-8.9,0-.63-1.26-.27-1.63-.22-8.48,1.1-13.08,9.57-22.49,8.26l-3.36-1.17c5.42.24,7.5-4.69,10.92-7.66,2.52-2.18,6.54-4.14,9.88-4.49,6.15-.64,12.38,2.08,17.6-3.16-2.41,7.82-7.4,16.8-15.3,20.14-8.3,3.5-18.1,1.69-24.98-3.89Z"/>
  <path class="cls-1" d="M281.47,74.03h-6.56V19.7h5.78c.1,0,.24-.4.47-.31v54.18c0,.1.4.24.31.47Z"/>
  <path class="cls-1" d="M377.33,36.56v6.25c-5.51-.84-9.95,3.08-10.01,8.6,0,.44.33.81.33.92v21.7h-6.56v-25.45c0-.29.9-2.77,1.1-3.27,2.54-6.31,8.52-9.12,15.14-8.75Z"/>
  <polygon class="cls-2" points="241.61 80.09 241.63 88.97 254.28 88.95 254.26 80.07 256.48 80.07 256.52 100.05 254.3 100.05 254.28 91.17 241.63 91.19 241.64 100.07 239.42 100.08 239.39 80.1 241.61 80.09"/>
  <path class="cls-2" d="M291.79,87.56c4.11-4.03,11.13-2.21,12.38,3.48,1.64,7.46-6.77,12.16-12.36,7.18-.06.33.08,1.7,0,1.78-.09.09-1.85-.06-2.22,0l-.03-20.2c.42.02,2.22-.16,2.22.33v7.44ZM295.73,87.61c-4.5.77-5.43,7.93-1.46,10.03,3.91,2.06,8.44-1.15,7.9-5.48-.41-3.34-3.19-5.1-6.45-4.54Z"/>
  <path class="cls-2" d="M352.41,99.89c-.38-.06-2.14.09-2.22,0s.06-1.65,0-2c-3.66,3.85-10.31,2.77-12.16-2.36-2.28-6.33,3.36-12.1,9.63-9.66l2.51,1.59c.06-.33-.08-1.69,0-1.78.09-.09,1.85.06,2.22,0l.02,14.21ZM343.68,87.53c-5.8.99-5.17,11.76,2.35,10.55,6.23-1.01,5.45-11.88-2.35-10.55Z"/>
  <path class="cls-2" d="M277.81,87.58c.06-.33-.08-1.69,0-1.78s1.65.06,2,0l.15,13.99c-.3.42-1.6.15-2.12.22-.15-.15.32-2.05-.33-1.77-3.36,3.37-9.34,2.53-11.52-1.78-3.11-6.13,2.51-12.84,9.01-10.6l2.83,1.72ZM271.31,87.65c-5.11.88-5.34,9.66.24,10.55,8.31,1.32,8.21-12.01-.24-10.55Z"/>
  <path class="cls-1" d="M150.63,55.92h-5.15l-15.34-13.72c-5.24,4.28-10.2,8.94-15.26,13.44-.62-.04-.53-.04-.62-.04h-4.53l20.19-18.37,20.71,18.68Z"/>
  <path class="cls-2" d="M364.59,81.67v3.66s.32.33.34.33h3.22s0,1.77,0,1.77h-3.22c-.24,0-.32.55-.34.77-.17,1.48-.14,6.93.26,8.21.73,2.35,2.99,1.11,3.32,1.45.07.07.06,1.92-.01,1.99-.46.46-3.2-.09-3.84-.46-.76-.44-1.92-2.11-1.92-2.96v-8.99s-2.46,0-2.46,0v-1.65s2.44-.13,2.44-.13v-4s2.21,0,2.21,0Z"/>
  <path class="cls-2" d="M327.53,85.73h3.33s0,1.77,0,1.77h-3.22c-.39,0-.07,1.62-.1,2.12-.11,2.09-.43,4.76.05,6.82.53,2.27,3.02,1.22,3.28,1.49.08.08-.06,1.65,0,2-7.91,1.14-5-7.25-5.6-12.06-.22-.68-2.03-.25-2.63-.36v-1.78c.47-.04,2.66.19,2.66-.34v-3.66c.41.02,2.21-.16,2.21.33v3.66Z"/>
  <rect class="cls-2" x="312.89" y="85.75" width="2.22" height="14.21" transform="translate(-.15 .51) rotate(-.09)"/>
  <path class="cls-2" d="M312.94,82.6c-1.18-1.18.58-3.64,2.16-2.27s-.85,3.58-2.16,2.27Z"/>
  <g>
    <rect class="cls-1" x="125" y="49.87" width="4.43" height="4.43" rx=".77" ry=".77"/>
    <rect class="cls-1" x="130.51" y="49.87" width="4.43" height="4.43" rx=".77" ry=".77"/>
    <rect class="cls-1" x="125" y="55.38" width="4.43" height="4.43" rx=".77" ry=".77"/>
    <rect class="cls-1" x="130.51" y="55.38" width="4.43" height="4.43" rx=".77" ry=".77"/>
  </g>
</svg>