<?xml version="1.0" encoding="UTF-8"?>
<svg id="Calque_1" data-name="Calque 1" xmlns="http://www.w3.org/2000/svg" viewBox="0 0 526.49 150.42">
  <defs>
    <style>
      .cls-1 {
        fill: #473978;
      }

      .cls-2 {
        fill: #fff;
      }

      .cls-3 {
        fill: none;
        stroke: #473978;
        stroke-miterlimit: 10;
        stroke-width: 1px;
      }

      .cls-4 {
        fill: #6aa85e;
      }
    </style>
  </defs>
  <rect class="cls-1" x="257.17" y="8.95" width="256.94" height="132.52"/>
  <rect class="cls-4" x="257.17" y="97.37" width="256.94" height="44.1"/>
  <path class="cls-1" d="M52.25,27.99c6.51-.21,13.42-.11,19.94-.18,20.36-.24,30.54,6.36,31.6,27.56.54,10.74-.5,19.3-7.43,27.78-1.04,1.28-3.96,3.26-3.9,4.74l11.97,25c.53,1.61.41,3.19-1.1,4.12-3.7-.22-19.16,1.25-21.5-.25-.8-.51-1.86-3.13-2.38-4.14-2.37-4.67-4.79-12-7.38-16.08-.74-1.17-2.35-3.34-3.6-1.69-1.17,1.55.08,16.98-.38,20.46-.49,3.68-4.86,1.94-7.18,1.91-3.81-.05-8.84.87-12.22.46-5.32-.63-3.31-6-3.24-9.32.21-10.18-.3-20.28-.47-30.42,2.09-14.25-1.24-31.13.45-45.13.45-3.72,3.53-4.71,6.83-4.81ZM77.07,50.54c-2.53-2.53-8.11-2.05-8.9,1.91-.53,2.65-.87,10.23-.43,12.82.98,5.79,8.94,6.65,10.9,1.09,1.48-4.19,1.81-12.42-1.57-15.82Z"/>
  <path class="cls-1" d="M141.37,94.95c2.15,1.91,10.07,3.36,10.73-.07.3-1.56.17-10.53-.48-11.66-2.31-4.04-7.13.95-8.74-4.31-.77-2.53.06-3.56.09-5.7.05-3.35-1.04-10.15,2.43-11.9,2.13-1.07,14.43-.47,17.81-.47,1.03,0,1.97-.48,3.01-.47,4.58.06,6.42,2.81,6.37,7.17,0,1.03-.48,1.99-.49,3.02-.08,12.73,1.13,28.05.04,40.4-.55,6.18-6.05,6.87-11.17,7.52-8.4,1.07-19.13.89-27.15-1.91-19.54-6.81-24.48-31.08-22.6-49.42,3.15-30.66,18.73-41.84,49.38-40.22,1.36.07,5.32.34,6.32.65,1.37.43,2.01,1.71,2.16,3.05.39,3.3.44,13.3.01,16.53-.23,1.73-2.86,4.01-4.63,4.08s-5.25-1.9-7.8-2.14c-5.46-.51-12.47-.16-16.33,4.11-5.06,5.6-6.44,24.16-4.25,31.17.64,2.05,3.87,9.32,5.28,10.58Z"/>
  <path class="cls-1" d="M207.11,83.1c-1.39,1.4-1.49,9.84-.61,11.38.17.3,1.26,1.27,1.6,1.44,1.72.89,7.75,1.31,9.94,1.37,2.79.08,8.19-.89,10.21.23.39.21,1.83,1.58,1.99,1.93.43.94.44,12.85.24,14.54-.24,2.01-1.67,3.52-3.7,3.69-12.76-.9-27.08,1.16-39.65.01-8.03-.73-3.02-13.74-4.12-18.9,1.32-20.89-1.78-44.35-.01-65.13.41-4.77,2.07-5.53,6.69-5.68,10.02-.33,20.73.89,31.01.72,3.69-.06,8.87-1.96,8.9,4.1.01,2.89-.11,8.48-.43,11.28-1.09,9.51-19.01.56-22.58,6.14-1.67,2.6-1.36,9.76,2.09,10.81s11.29-.32,15.49.18c2.93.35,3.89,1.8,4.14,4.55.22,2.38.29,11.69-.42,13.5-2.48,6.3-16.43-.57-20.78,3.81Z"/>
  <g>
    <path class="cls-2" d="M431.06,54.89c1.25.36,6.14,10.29,7.08,12.03.28.51-.02.72.97.55v-11.94s.61-.65.65-.65h9.36v30.38h-9.8c-2.57-4.22-5.31-8.42-7.19-13.02-1.75-.25-.43,1.12-.43,1.52v11.5c-2.16.83-3.81,0-5.85-.02-1.49-.02-3.55,1.48-4.51-.72l.35-29.65c2.43.45,7.28-.61,9.36,0Z"/>
    <path class="cls-2" d="M369.45,77.9v7.38c-1.77.54-3.51,0-5.46-.02-1.03,0-1.98.53-2.99.45-3.48-.3-1.52-4.25-1.55-6.27-.01-.82-.45-1.67-.47-2.61-.11-6.51.11-13.03.03-19.54.43-1.56,1.33-1.85,2.79-1.99,4.04-.39,15.53-.39,18.97,1.11,4.61,2.01,5.79,6.97,5.11,11.61-.56,3.86-2.85,4.98-5.13,7.48,0,1.21,5.01,6.73,5.5,8.45.16.57,0,1.33-.47,1.33h-10.01l-4.35-6.95-1.96-.43ZM369.99,62.81c-1.1,1.09-1.18,6.35,1.51,6.76,3.45.53,4.05-4.04,2.69-6.17-.78-1.23-3.24-1.55-4.21-.59Z"/>
    <path class="cls-2" d="M316.26,54.56c1.32-.02,6.53.24,7.08.94.6.76.61,5.43.18,6.34-1.1,2.28-3.48.57-4.83.47-6.52-.5-10.28.45-11.02,7.61-.41,4.02,2.04,10.25,7.05,8.76,1.41-.42,1.42-4.39.31-4.9-1.68-.77-3.99.76-3.94-2.58,0-.48.54-3.99.66-4.17,1.01-1.59,4.85-.39,6.11-.42,2.03-.04,6.83-1.79,7.21,1.49.56,4.89-.39,10.97-.12,15.99-.77,2.64-9.86,2.63-12.31,2.47-9.71-.64-16.46-5.49-16.37-15.84.11-12.25,9.13-16.05,19.99-16.17Z"/>
    <path class="cls-2" d="M412.46,55.43l6.43,28.96-1.76,1.31c-1.68-.44-8.2.62-8.92-.74-.46-.87-.41-4.07-.93-4.39-.42-.26-5.91-.2-6.28.35-.56.82.19,3.93-1.15,4.51-1.26.55-10.73,1.19-10.37-1.63l7.21-28.45c2.17-1.73,4.68-.47,6.93-.43,1.74.03,7.93-.42,8.84.52ZM403.85,63.58c-.07,1.67-2.68,8-1.33,8.92,1.24.85,3.92.27,3.96-1.74.01-.6-1.29-8.48-2.63-7.18Z"/>
    <path class="cls-2" d="M345.61,85.61c-1.14-1.15.41-4.37-2.47-4.7-.82-.09-4.1-.11-4.61.23-.97.64-.58,3.29-1.07,4.14-.75,1.3-10.15,1.44-10.62-.29l5.82-26.63c1.05-4.92,4.9-3.08,8.26-3.01,1.84.03,7.19-.42,8.32.38,1.59,1.13,3.44,15.38,4.86,18.16-.47,2.42,3.05,10.45,1.25,11.86-1.4,1.1-3.43-.04-4.83-.04-1.33,0-3.68,1.13-4.91-.1ZM339.47,73.06c.48.75,3.35.62,3.78-.66.4-1.18-.5-7.9-1.46-8.39-.73-.37-.69.52-.84.86-.63,1.43-2.2,7.04-1.48,8.18Z"/>
    <path class="cls-2" d="M431.06,21.47c1.37.23,5.66,8.66,6.55,10.4,1.94,1.29.64-.38.64-.64v-8.68c0-.08,1.01-1.09,1.09-1.09h6.97s.65.61.65.65v24.96c-1.56.91-2.95.02-4.18.04-1.35.02-2.67.88-4.09.18-1.06-.52-6.54-11.62-6.96-11.07-.32.71.43,1.62.43,1.95v8.68s-.61.65-.65.65h-7.4c-2.06,0-.67-3.66-.64-4.97.18-6.09-.72-13.79-.04-19.57.05-.44.2-1.5.68-1.5,1.99,0,5.2-.3,6.97,0Z"/>
    <path class="cls-2" d="M402.33,21.47c1.52.26,5.92,9.07,6.97,10.85.99.17.59-.43.65-1.08.14-1.68-1.16-9.77.65-9.77h6.97s.65.61.65.65v24.74c0,1.34-3.62.26-4.18.26-1.5,0-2.64.97-4.27-.08-.86-.56-6.24-11.49-6.79-10.81-.27.63.43,1.26.43,1.52v9.11s-.61.65-.65.65h-7.4s-.65-.61-.65-.65v-24.74s.61-.65.65-.65c1.99,0,5.2-.3,6.97,0Z"/>
    <path class="cls-2" d="M296.31,22.56c.19-.67,1.28-1.02,1.94-1.11,4-.54,15.02-.41,18.24,1.83,4.81,3.35,3.97,12.73-1.42,15.38.19,1.86,5.67,6.93,4.57,8.44-.78,1.08-2.94-.05-3.95-.02-1.39.03-2.63.83-4.26.34s-4.54-7.87-5.96-6.42c-.15,1.06.46,6.51-.66,6.51h-7.84s-.65-.61-.65-.65v-24.31ZM309.26,28.09c-.6-.6-3.08-.88-3.62-.12s-.97,4.58.09,5.26c4,2.54,5.24-3.43,3.53-5.14Z"/>
    <path class="cls-2" d="M375.89,21.17c4.08-.42,10.83.74,12.89,4.69,1.86,3.57,1.65,14.27-.27,17.87-3.04,5.68-17.01,5.49-20.29.46-.55-.85-1.03-2.09-1.27-3.08-.68-2.86-.59-10.73,0-13.68.8-4.07,5.24-5.88,8.95-6.27ZM377.16,27.63c-2.55.78-1.1,4.02-1.16,5.37-.08,2.13-1.32,6.22.21,7.99,1.07,1.24,3.17,1.17,4.05-.27-.15-2.92,2.69-14.85-3.11-13.09Z"/>
    <path class="cls-2" d="M459.8,21.47c.24.04.68.43,1.02.51.93,3.29-1.61,17.19.28,19.04,1.02,1,3.8.68,4.14-1.11.7-3.7-.95-15.16.23-17.57.77-1.58,7.31-.85,8.93-.43v19.75c0,1.14-2.07,3.62-3.08,4.31-4.31,2.96-17.72,3.03-19.27-2.87-.67-2.56-.71-16.75-.32-19.69.08-.57.56-1.93,1.11-1.93,2,0,5.18-.3,6.97,0Z"/>
    <path class="cls-2" d="M458.93,85.28c-1.93-.54-.64-3.7-.64-4.97,0-2.24-.01-4.33,0-6.51s.35-9.16-.43-10.46c-1.21-2.03-4.73-.37-5.5-1.47-.34-.49-.34-6.08,0-6.57.31-.44.85-.37,1.31-.43,2.05-.25,19.46-.37,20.29.21.56.39.62,5.65.35,6.48-.55,1.66-4.83-.42-5.51,1.88l.25,20.66c-.35,2.15-2.15,1.17-3.17,1.17-1.6,0-5.82.32-6.97,0Z"/>
    <path class="cls-2" d="M333.31,31.02h7.18c2.32,0,1.83,6.08.44,6.08h-6.97c-1.42,0-1.42,4.34,0,4.34h7.4c1.99,0,2.29,5.42.35,5.99l-17.98-.35v-24.09c0-.12.68-1.18.87-1.3.68-.41,14.26-.45,15.91-.24,2.96.39,2.58,5.25.4,5.65-3.19.59-9.74-1.85-7.61,3.92Z"/>
    <path class="cls-2" d="M362.82,47.41c-.97.97-8.23-.11-9.77-.69-7.43-2.78-9.38-12.62-6.11-19.27,2.08-4.23,8.67-6.49,13.15-6.46,3.92.02,3.76,2.46,3.29,5.92-.4,2.97-2.01,1.45-3.62,1.59-6.23.54-6.37,10.3-1.11,11.77,1.4.39,3.93-.07,4.52,1.16.13.27-.1,5.73-.34,5.97Z"/>
  </g>
  <g>
    <path class="cls-2" d="M436.37,109.07c.24.21,2.09,5.27,3.2,5.54,1.85.45,3.24-5.22,3.75-5.54.93-.58,5.74.22,7.25-.09l-.56,20.83c-8.58,1-6.73-1.45-6.79-8.45-1.8,1.16-.88,3.35-3.67,3.43-1.39.04-1.38-3.18-3.09-3.43-.61,5.85.88,10.58-7.11,7.92l-.24-20.31c1.29.25,6.73-.38,7.27.09Z"/>
    <path class="cls-2" d="M409.34,129.25c-.38.59-5.18.79-6.22.28-1.98-.96-2.18-5.74-4.24-6.47-.86,1.43.45,5.63-.81,6.51-.77.54-5.47.48-6-.28-.57-.81-.57-18.97,0-19.78s4.96-.73,5.97-.25c1.3.63,2.98,5.52,4.51,6.48-.47-6.98-.24-7.25,6.78-6.76-.59,2.89.78,19.06,0,20.27Z"/>
    <path class="cls-2" d="M285.07,108.98c1.44.3,5.8-.47,6.69.09.29.18,2.54,5.73,2.92,6.1,1.78,1.76.62-5.23,1.65-5.95.73-.51,5.46-.5,6,.28s.52,16.92.28,18.92c-.2,1.72-4.83,1.8-6.26,1.11-1.78-.86-2.49-5.81-4.51-7.04-.27,1.51.59,6.29-.53,7.07-.85.59-6.25.48-6.25-.6v-19.99Z"/>
    <path class="cls-2" d="M469.78,108.98c1.44.3,5.79-.47,6.69.09.64.4,2.32,6.68,4.04,7.23v-7.32s6.78,0,6.78,0v20.27c-7.25,1.96-7.57-1.26-10.45-6.76-.88.03.47,6.19-.81,7.08-.84.59-6.25.48-6.25-.6v-19.99Z"/>
    <path class="cls-2" d="M381.1,115.74c.78.86,1.02-.06,1.12-.83.14-1.08-.21-5.72,0-5.93,1.34.28,5.31-.43,6.14.08,1.2.75.31,17.58.57,20.11-8.55,3.18-7.35-2.89-11.21-7.8l.32,7.91c-.8,1.12-5.71.54-7.06-.08,1.45-3.4-.48-17.9.77-19.69.59-.85,4.96-.73,5.97-.25,1.62.78,2.82,5.84,3.39,6.48Z"/>
    <path class="cls-2" d="M345.22,108.98c.16.04,2.38,1.73,2.56,1.95,1.37,1.74,1.36,5.64.98,7.77s-2.72,3.09-2.55,4.54c.27,2.16,3.13,3.72,3.25,6-.19.26-5.94.65-6.4.51-1.51-.48-2.33-4.53-4.05-5.01l.27,4.48c-1.16.68-7.34,1.14-7.34-.25v-19.15c0-.06.79-.84.85-.84,2.9,0,10.21-.56,12.43,0ZM341.56,118c.75-5.41-3.58-5.4-2.83,0h2.83Z"/>
    <path class="cls-2" d="M366.17,110.36c3.55,2.3,2.94,13.5.81,16.94-2.44,3.94-10.5,3.74-13.72.85-2.75-2.46-2.73-13.9-.69-16.92,2.51-3.73,10.11-3.14,13.6-.87ZM358.5,114.33c-.68,2.37.5,7.66,0,10.42.73-.1,1.82.36,2.32-.33.92-1.28,1.1-10.51-.91-10.93-.49-.17-1.32.54-1.4.84Z"/>
    <path class="cls-2" d="M310.41,109.06c1.22.76.02,7.88,1.5,9.5,2.82-.04.25-7.82,2.52-9.32,1.21-.8,5.16.03,6.8-.26-.99,4.52-1.39,9.67-2.52,14.1-1.58,6.22-1.42,7.42-8.51,6.73-2.97-.29-2.65-1.28-3.4-3.92-1.23-4.32-1.84-8.85-2.55-13.22-.11-.65-1.95-3.27-.16-3.71.58-.14,6.05-.06,6.32.1Z"/>
    <path class="cls-2" d="M282.24,108.98v4.51s-6.22,0-6.22,0v2.82s5.65,0,5.65,0v4.75s-5.65.32-5.65.32v3.38s6.78,0,6.78,0c-.22,1.08.36,3.72-.08,4.43-.58.93-13.72,1.17-14.07-.29l.59-19.9h12.99Z"/>
    <path class="cls-2" d="M466.95,108.98v4.51c-1.65.23-7.47-1.08-6.75,1.92.4,1.67,5.92.34,6.67,1.54.38.61-.1,4.06-.57,4.35-1.05.66-5.57-.86-6.1,1-1.02,3.63,4.55,2.28,6.74,2.46,0,.94.32,5.07-.85,5.07h-11.86c-.06,0-.85-.78-.85-.84v-19.99h13.56Z"/>
    <path class="cls-2" d="M425.72,108.98c.49.31.71,3.92-.09,4.42-1.1.7-6.13-1.1-6.13,1.49,0,2.74,5.45.24,6.14,2.33.28.85.3,3.38-.45,3.9-1.43,1-5.64-.86-5.7,1.09-.13,4.13,3.78,2.11,6.8,2.53,0,.94.32,5.07-.85,5.07h-11.86c-1.91,0-.85-2.9-.85-3.1v-17.74c2.01.42,12.12-.56,12.99,0Z"/>
    <path class="cls-2" d="M499.15,114.61v14.64c-2.37.71-4.93.97-7.26-.08-.46-4.78.73-9.49-.04-14.24-.09-.56-1.56-.24-2.28-.6-1.76-.88-1.04-3.7-1.15-5.35h13.27c1.56,0,1.45,7.04-2.54,5.63Z"/>
    <path class="cls-2" d="M329.13,108.98v20.27c0,.35-6.78,1.28-6.78-.28v-19.99h6.78Z"/>
  </g>
  <rect class="cls-3" x="12.37" y="10.24" width="244.8" height="130.72"/>
</svg>